<?xml version="1.0" standalone="no"?>
<!DOCTYPE svg PUBLIC "-//W3C//DTD SVG 1.1//EN" "http://www.w3.org/Graphics/SVG/1.1/DTD/svg11.dtd" >
<svg xmlns="http://www.w3.org/2000/svg" xmlns:xlink="http://www.w3.org/1999/xlink" version="1.1">
<metadata>
Created by FontForge 20170731 at Tue Jun  7 08:06:00 2022
 By Aleksey,,,
</metadata>
<defs>
<font id="BrusselsCityPersonalUsed" horiz-adv-x="1292" >
  <font-face 
    font-family="Brussels City Personal Used"
    font-weight="400"
    font-stretch="normal"
    units-per-em="2048"
    panose-1="0 0 0 0 0 0 0 0 0 0"
    ascent="1638"
    descent="-410"
    x-height="1081"
    cap-height="1506"
    bbox="-528 -555 8022.78 1772.62"
    underline-thickness="102"
    underline-position="-307"
    unicode-range="U+000A-F001"
  />
<missing-glyph horiz-adv-x="1079" 
d="M102 1434h875v-1434h-875v1434zM160 1393l379 -633l381 633h-760zM514 717l-369 614v-1231zM541 674l-379 -631h758zM565 717l371 -621v1239z" />
    <glyph glyph-name="Brussels.liga" unicode="Brussels" horiz-adv-x="8087" 
d="M1075 799q239 -159 239 -527q0 -255 -210 -402q-177 -124 -430 -124q-119 0 -229.5 31.5t-200 90.5t-143.5 153t-54 209h168q0 -75 39.5 -136.5t105 -100t146.5 -59t168 -20.5q198 0 333 94q139 97 139 264q0 88 -18 160.5t-44.5 118t-63.5 79.5t-69.5 50.5t-68 26.5
t-53 12t-30.5 2h-355v-627h-168v1150h-112v169h696q39 -2 81 -13t90 -37t85 -63.5t61.5 -98t24.5 -134.5q0 -173 -127 -268zM853 889q16 1 32.5 4.5t45.5 15t50 29.5t37 51.5t16 77.5q0 43 -16 77t-37 51.5t-49.5 29t-45.5 15t-33 4.5h-409v-355h409zM1750 790
q88 238 305 238q58 0 103 -12l-37 -224q-36 9 -66 9q-72 0 -126.5 -31.5t-87.5 -80.5t-54 -119t-28.5 -138t-8.5 -145v-124h112v-168h-392v168h112v684l-5 5h-107v168h177l103 -103v-127zM2922 852v168h393v-168h-112v-684l5 -5h107v-168h-177l-91 91q-113 -91 -258 -91
q-171 0 -293 121.5t-122 292.5v444h-135v168h304v-612q0 -102 72 -174t174 -72t174 72t72 174v443h-113zM3922 579q73 -26 109 -41t88.5 -45.5t75.5 -61t38 -80.5t7 -112q-16 -125 -126.5 -197.5t-285.5 -72.5q-68 0 -131 23.5t-102.5 52t-73.5 66.5t-45 54.5t-17 27.5
l147 81q5 -8 11 -17t27.5 -33t45 -41t61 -31.5t77.5 -14.5q92 0 164.5 30.5t80.5 92.5q2 15 2.5 24.5t-2.5 20.5t-8 18t-16 16.5t-25.5 17t-38.5 18t-51.5 21t-68.5 25.5q-88 32 -132 49q-134 53 -189.5 141t-42.5 176q13 95 92.5 157.5t198.5 73.5q88 8 162.5 -8.5
t116 -40.5t74 -58.5t41 -49t13.5 -26.5l-78 -32l-77 -35q-3 5 -7.5 12t-23 23t-42.5 27t-68 18t-96 3q-62 -6 -98 -31t-41 -57q-5 -37 29.5 -74t97.5 -62q53 -21 127 -48zM4843 579h1q151 -55 208 -92q116 -76 113 -209q0 -19 -3 -39q-16 -125 -126.5 -197.5t-285.5 -72.5
q-68 0 -131 23.5t-102.5 52t-73.5 66.5t-45 54.5t-17 27.5l147 81q5 -8 11 -17t27.5 -33t45 -41t61 -31.5t77.5 -14.5q92 0 164.5 30.5t80.5 92.5q4 30 1 45.5t-26 34t-62.5 35.5t-121.5 46q-77 28 -131 49q-134 53 -189.5 141t-42.5 176q13 95 92.5 157.5t198.5 73.5
q88 8 162.5 -8.5t115.5 -40.5t74 -59t41 -49t13 -26l-77 -32l-77 -35q-3 5 -7.5 12t-23.5 23t-43 27t-68 18t-96 3q-62 -6 -98 -31t-41 -57q-5 -37 29.5 -74t97.5 -62q53 -21 127 -48zM5796 1029q131 0 243 -69.5t177 -188.5t65 -259v-85h-791q29 -115 123 -189.5t215 -74.5
q74 0 142.5 30.5t117.5 85.5l125 -113q-73 -82 -174 -126.5t-211 -44.5q-140 0 -259 69.5t-188 188.5t-69 259q0 138 65.5 257t177.5 189.5t241 70.5zM5490 596h613q-26 115 -111.5 189.5t-195.5 74.5q-105 0 -192 -76t-114 -188zM6805 281q48 -66 120 -92t177 -26v-168
q-284 0 -418 163q-123 -108 -230 -156l-35 79l-34 75q115 57 215 152q-77 201 -77 617q0 179 49.5 303t138.5 169q110 56 214 -21q92 -68 128 -212t6 -325q-52 -317 -254 -558zM6691 925q0 -301 40 -465q125 180 162 406q23 139 1 240t-68 135q-12 10 -25 10q-8 0 -14 -4
q-35 -18 -65.5 -97.5t-30.5 -224.5zM7702 579q73 -26 109 -41t88.5 -45.5t75.5 -61t38 -80.5t7 -112q-16 -125 -126.5 -197.5t-285.5 -72.5q-68 0 -131 23.5t-102.5 52t-73.5 66.5t-45 54.5t-17 27.5l147 81q5 -8 11 -17t27.5 -33t45 -41t61 -31.5t77.5 -14.5
q92 0 164.5 30.5t80.5 92.5q2 15 2.5 24.5t-2.5 20.5t-8 18t-16 16.5t-25.5 17t-38.5 18t-51.5 21t-68.5 25.5q-77 28 -131 49q-92 36 -149 93t-74.5 113t-9.5 111q13 95 92.5 157.5t198.5 73.5q88 8 162.5 -8.5t116 -40.5t74 -58.5t41 -49t13.5 -26.5l-78 -32l-76 -35
q-3 5 -7.5 12t-23.5 23t-43 27t-68 18t-96 3q-62 -6 -98 -31t-41 -57q-5 -37 29.5 -74t97.5 -62q53 -21 127 -48z" />
    <glyph glyph-name="City.liga" unicode="City" horiz-adv-x="3944" 
d="M790 154q282 0 452 252l140 -93q-65 -96 -143.5 -164t-158.5 -101.5t-149.5 -47.5t-140.5 -14q-52 0 -112.5 11t-130 36.5t-135 63t-127 95.5t-107 128.5t-73 168t-27.5 208.5q0 110 25.5 207t67.5 167.5t98 129t116 96.5t123 64t117 37t100 11q118 0 215.5 -25
t162 -66.5t109.5 -97t66 -113t24 -117.5q8 -158 -93 -279t-256 -137q-160 -17 -268 70q-41 33 -70 77t-42.5 87t-18 63t-6.5 37l85 8l82 9q2 -16 6 -34.5t19.5 -50t37.5 -54t63 -37t94 -8.5q97 11 150.5 83t48.5 157q-3 50 -27 94.5t-70.5 82.5t-126.5 60.5t-185 22.5
q-23 0 -56.5 -6.5t-80 -23.5t-92 -43t-91.5 -69.5t-81 -98t-56.5 -133t-21.5 -170.5q0 -91 23 -169.5t60 -132.5t87 -97.5t100.5 -69.5t104 -43.5t95 -24t74.5 -6.5zM1755 1166q-47 0 -80.5 34t-33.5 81t33.5 80.5t80.5 33.5t81 -33.5t34 -80.5t-34 -81t-81 -34zM1865 1011
v-857h196v-168h-561v168h197v689h-197v168h365zM2490 1325v-325h261v-168h-261v-846h-169v846h-262v168h262v325h169zM3473 1012h437v-169h-138l-514 -1287h-322v168h208l138 345l-324 774h-139v169h437v-169h-116l231 -551l220 551h-118v169z" />
    <glyph glyph-name=".notdef" horiz-adv-x="1079" 
d="M102 1434h875v-1434h-875v1434zM160 1393l379 -633l381 633h-760zM514 717l-369 614v-1231zM541 674l-379 -631h758zM565 717l371 -621v1239z" />
    <glyph glyph-name=".null" horiz-adv-x="0" 
 />
    <glyph glyph-name=".null" horiz-adv-x="0" 
 />
    <glyph glyph-name="nonmarkingreturn" horiz-adv-x="682" 
 />
    <glyph glyph-name="controlLF" unicode="&#xa;" horiz-adv-x="0" 
 />
    <glyph glyph-name="controlCR" unicode="&#xd;" horiz-adv-x="0" 
 />
    <glyph glyph-name="space" unicode=" " horiz-adv-x="391" 
 />
    <glyph glyph-name="exclam" unicode="!" horiz-adv-x="567" 
d="M283 12q-41 0 -70 29t-29 70t29 70.5t70 29.5t70.5 -29.5t29.5 -70.5t-29.5 -70t-70.5 -29zM372 336h-178l-59 1169h297z" />
    <glyph glyph-name="comma" unicode="," horiz-adv-x="329" 
d="M92 111h165l-77 -171h-112z" />
    <glyph glyph-name="period" unicode="." horiz-adv-x="372" 
d="M186 12q-41 0 -70.5 29t-29.5 70t29.5 70.5t70.5 29.5t70 -29.5t29 -70.5t-29 -70t-70 -29z" />
    <glyph glyph-name="zero" unicode="0" horiz-adv-x="1441" 
d="M720 1512q161 0 297.5 -100t216 -272.5t79.5 -375.5t-79.5 -375.5t-216 -272.5t-297.5 -100t-297.5 100t-216 272.5t-79.5 375.5t79.5 375.5t216 272.5t297.5 100zM720 194q113 0 208.5 76.5t151 208t55.5 285.5t-55.5 285.5t-151 208t-208.5 76.5t-208.5 -76.5
t-151 -208t-55.5 -285.5t55.5 -285.5t151 -208t208.5 -76.5z" />
    <glyph glyph-name="one" unicode="1" horiz-adv-x="667" 
d="M426 192h118v-178h-415v178h119v1142h-119v178h297v-1320z" />
    <glyph glyph-name="two" unicode="2" horiz-adv-x="1247" 
d="M544 192h387v181h178v-358h-858l-45 153l55 36q243 159 436 385.5t226 367.5q18 78 0.5 159t-64.5 140q-76 94 -201 94q-221 0 -359 -80v-272h-178v358l29 26q10 9 26 21.5t61.5 36t99 42t139.5 32.5t182 14q103 0 190.5 -41.5t149.5 -119.5q72 -90 98.5 -211t-0.5 -239
q-34 -149 -188.5 -351t-363.5 -374z" />
    <glyph glyph-name="three" unicode="3" horiz-adv-x="1323" 
d="M1042 701q138 -137 155 -346t-97 -374q-79 -114 -194 -166.5t-246 -52.5q-98 0 -193 27q-158 45 -250 173.5t-96 309.5l178 4q3 -123 59 -205t158 -111q56 -16 114.5 -19t118 8t113.5 45t92 89q77 112 66 256t-103 236q-48 48 -111.5 70.5t-126.5 19.5t-107.5 -12
t-85.5 -23l-94 145l428 458h-521v-93h-178v182l89 89h815l65 -150l-392 -419q209 -8 344 -141z" />
    <glyph glyph-name="four" unicode="4" horiz-adv-x="1314" 
d="M1194 322h-178v-130h118v-178h-415v178h119v130h-667l-73 141l757 1052l161 -52v-963h178v-178zM344 500h494v687z" />
    <glyph glyph-name="five" unicode="5" horiz-adv-x="1308" 
d="M1183 342q10 -142 -37.5 -260.5t-146.5 -198.5q-149 -122 -357 -122q-90 0 -177 25q-158 45 -250 172.5t-96 307.5l178 4q3 -122 59 -203.5t158 -109.5q101 -28 201.5 -11t171.5 75q133 107 119 309q-16 230 -206 326q-107 55 -237 47.5t-235 -73.5l-135 92l118 603
l87 72h673v-178h-600l-71 -364q118 35 245.5 25t235.5 -65q135 -69 213.5 -191t88.5 -282z" />
    <glyph glyph-name="six" unicode="6" horiz-adv-x="1183" 
d="M1060 564q2 -17 3 -32t-0.5 -68.5t-10.5 -99t-34.5 -105.5t-65.5 -106q-124 -141 -350 -141q-70 0 -132 14.5t-106 37t-81.5 54t-61 62t-42.5 65.5q-59 107 -60 232.5t55 240.5l7 16q1 2 3 7t4 8l377 773h203l-309 -632q4 3 12 7.5t34 17t52.5 18.5t68.5 12.5t82 -1.5
q73 -9 132 -38t96.5 -67.5t64.5 -88t40 -94t19 -92.5zM814 273q28 32 44.5 76t19.5 88t3 63.5t-2 37.5v1q-1 7 -4.5 23.5t-13 48.5t-28.5 62.5t-44.5 60t-66.5 47.5t-90 18q-66 0 -120 -15t-85.5 -38.5t-47.5 -41t-25 -34.5l-16 -32q-36 -74 -35.5 -156t37.5 -149
q76 -138 262 -138q143 0 212 78z" />
    <glyph glyph-name="seven" unicode="7" horiz-adv-x="1165" 
d="M987 1359l84 -139l-730 -1371h-208l706 1327h-545v-158h-183v341h876z" />
    <glyph glyph-name="eight" unicode="8" horiz-adv-x="1300" 
d="M1173 521q7 -88 -28 -178q-35 -81 -88 -141q-67 -72 -122 -107q-11 -8 -70 -40q-12 -6 -38 -16q-34 -13 -38 -14q-154 -49 -319 -11q-95 26 -153 63q-85 56 -126 119q-53 79 -62 166q-4 19 -4 85q0 1 6 43q1 3 3 18t5 23q17 56 30 80q13 30 42 72q52 70 113 113
q51 39 117 70q-36 25 -58 46q-70 59 -105 140q-16 41 -17 44q-2 8 -5 23t-4 23q-1 7 -1.5 15t-1 18t-0.5 15q0 16 4 48q18 97 92 168q60 57 146 91q73 28 159 35q88 7 164 -11q43 -11 83 -30q9 -4 42 -25q23 -18 37 -33q63 -65 85 -162q18 -81 4 -170q-17 -95 -65 -161
q-37 -51 -96 -92q32 -16 72 -40q74 -45 129 -113q60 -85 68 -174zM435 1207q-7 -42 12 -81q20 -43 59 -75q6 -6 44 -34q3 -2 22 -13.5t30 -17.5q36 -20 116 -56l16 -7q88 46 128 112q23 38 30 92.5t-4 102.5q-13 51 -40 78q-2 2 -14 12q-3 1 -7.5 4.5t-8.5 5.5q-16 8 -46 15
q-48 12 -108 7q-53 -4 -107 -25q-52 -20 -85 -52q-29 -29 -37 -68zM970 414q17 48 14 89q-4 36 -31 78q-42 46 -76 66q-35 22 -111 56l-125 55q-14 6 -42 20q-110 -55 -188.5 -130t-98.5 -161q-2 -5 -3 -13.5t-2 -11.5q0 -2 -1.5 -11t-1.5 -14l3 -51q4 -42 33 -87
q52 -78 172 -106q52 -12 111 -10q72 6 109 20q14 3 26 9l25 11q5 3 22 12t26 16q37 23 83 73q36 42 56 90z" />
    <glyph glyph-name="nine" unicode="9" horiz-adv-x="1183" 
d="M1004 1199q59 -107 60 -232.5t-55 -240.5l-7 -16l-3.5 -7t-4.5 -8l-376 -773h-203l309 632q-4 -3 -12 -7.5t-34 -17t-52.5 -18.5t-68.5 -12.5t-82 1.5q-73 9 -132 38t-96.5 67.5t-64.5 88t-40 94t-19 92.5q-2 17 -3 32t0.5 68.5t10.5 99t34.5 105.5t65.5 106
q124 141 350 141q70 0 132 -14.5t106 -37t81.5 -54t61 -62t42.5 -65.5zM845 806q36 74 35.5 155.5t-37.5 148.5q-76 139 -262 139q-143 0 -212 -78q-28 -32 -44.5 -76.5t-19.5 -88.5t-3 -63.5t2 -37.5v-1q1 -10 6 -32t22 -63.5t42 -76t72 -61t105 -26.5q66 0 120 15
t85.5 38.5t47.5 41t25 34.5z" />
    <glyph glyph-name="colon" unicode=":" horiz-adv-x="405" 
d="M202 206q-41 0 -70.5 29.5t-29.5 70.5t29.5 70t70.5 29t70 -29t29 -70t-29 -70.5t-70 -29.5zM202 1023q-41 0 -70.5 29.5t-29.5 70.5t29.5 70t70.5 29t70 -29t29 -70t-29 -70.5t-70 -29.5z" />
    <glyph glyph-name="semicolon" unicode=";" horiz-adv-x="401" 
d="M200 1023q-41 0 -70.5 29.5t-29.5 70.5t29.5 70t70.5 29t70 -29t29 -70t-29 -70.5t-70 -29.5zM105 135l25 171h164l-76 -171h-113z" />
    <glyph glyph-name="question" unicode="?" horiz-adv-x="1167" 
d="M545 12q-41 0 -70.5 29t-29.5 70t29.5 70.5t70.5 29.5t70 -29.5t29 -70.5t-29 -70t-70 -29zM963 1339q83 -107 87.5 -244.5t-71.5 -241.5q-26 -35 -63.5 -69.5t-63 -52.5t-73.5 -51q-92 -62 -132 -104q-10 -22 -15.5 -95t-2.5 -149l-178 -8q-13 289 62 370q53 57 167 133
q39 26 61 42t49.5 40.5t44.5 48.5q41 55 37.5 134.5t-49.5 138.5t-122.5 88.5t-159.5 20.5q-134 -16 -205 -107q-35 -44 -45.5 -99.5t6.5 -104.5l-167 -60q-33 92 -15 192.5t82 181.5q57 71 142 117t182 57q128 14 248 -34.5t194 -143.5z" />
    <glyph glyph-name="A" unicode="A" horiz-adv-x="1509" 
d="M1345 178h146v-178h-462v178h124l-87 220h-622l-88 -220h125v-178h-463v178h146l459 1149h-99v178h462v-178h-100zM515 576h480l-240 600z" />
    <glyph glyph-name="A" unicode="&#xc5;" horiz-adv-x="1509" 
d="M1345 178h146v-178h-462v178h124l-87 220h-622l-88 -220h125v-178h-463v178h146l459 1149h-99v178h462v-178h-100zM515 576h480l-240 600z" />
    <glyph glyph-name="A" unicode="&#xc4;" horiz-adv-x="1509" 
d="M1345 178h146v-178h-462v178h124l-87 220h-622l-88 -220h125v-178h-463v178h146l459 1149h-99v178h462v-178h-100zM515 576h480l-240 600z" />
    <glyph glyph-name="A" unicode="&#xc3;" horiz-adv-x="1509" 
d="M1345 178h146v-178h-462v178h124l-87 220h-622l-88 -220h125v-178h-463v178h146l459 1149h-99v178h462v-178h-100zM515 576h480l-240 600z" />
    <glyph glyph-name="A" unicode="&#xc2;" horiz-adv-x="1509" 
d="M1345 178h146v-178h-462v178h124l-87 220h-622l-88 -220h125v-178h-463v178h146l459 1149h-99v178h462v-178h-100zM515 576h480l-240 600z" />
    <glyph glyph-name="A" unicode="&#xc1;" horiz-adv-x="1509" 
d="M1345 178h146v-178h-462v178h124l-87 220h-622l-88 -220h125v-178h-463v178h146l459 1149h-99v178h462v-178h-100zM515 576h480l-240 600z" />
    <glyph glyph-name="A" unicode="&#xc0;" horiz-adv-x="1509" 
d="M1345 178h146v-178h-462v178h124l-87 220h-622l-88 -220h125v-178h-463v178h146l459 1149h-99v178h462v-178h-100zM515 576h480l-240 600z" />
    <glyph glyph-name="B" unicode="B" horiz-adv-x="1380" 
d="M1075 880q104 -64 165.5 -171t61.5 -233q0 -196 -140 -336t-336 -140h-740v178h119v1149h-119v178h119v1h178v-1h435q151 0 258 -107t107 -259q0 -153 -108 -259zM818 1327h-435v-376h435q78 0 132.5 55t54.5 133t-54.5 133t-132.5 55zM826 178q123 0 210.5 87.5
t87.5 210.5t-87.5 210t-210.5 87h-443v-595h443z" />
    <glyph glyph-name="C" unicode="C" horiz-adv-x="1513" 
d="M828 1327q-156 0 -288 -77t-209 -209t-77 -288t77 -288.5t209 -209.5t288 -77q135 0 255 59t202 167l141 -108q-108 -141 -264.5 -218.5t-333.5 -77.5q-153 0 -292 60t-240 160.5t-160.5 240t-59.5 292.5t59.5 292t160.5 240t240 160.5t292 59.5q245 0 439 -140v125h178
v-335l-160 -54q-82 108 -202 167t-255 59z" />
    <glyph glyph-name="C" unicode="&#xc7;" horiz-adv-x="1513" 
d="M828 1327q-156 0 -288 -77t-209 -209t-77 -288t77 -288.5t209 -209.5t288 -77q135 0 255 59t202 167l141 -108q-108 -141 -264.5 -218.5t-333.5 -77.5q-153 0 -292 60t-240 160.5t-160.5 240t-59.5 292.5t59.5 292t160.5 240t240 160.5t292 59.5q245 0 439 -140v125h178
v-335l-160 -54q-82 108 -202 167t-255 59z" />
    <glyph glyph-name="D" unicode="D" horiz-adv-x="1388" 
d="M559 1505q153 0 292.5 -60t240 -160.5t160.5 -240t60 -292.5t-60 -292t-160.5 -240t-240 -160.5t-292.5 -59.5h-463v178h119v1149h-135v178h135v1h178v-1h166zM559 178q156 0 288.5 77t209.5 209t77 288q0 117 -45.5 223.5t-122.5 183.5t-183.5 122.5t-223.5 45.5h-166
v-1149h166z" />
    <glyph glyph-name="E" unicode="E" horiz-adv-x="1187" 
d="M1089 1223h-178v104h-528v-485h420v61h178v-306h-178v67h-420v-486h528v104h178v-282h-1003v178h119v1149h-119v178h119v1h178v-1h706v-282z" />
    <glyph glyph-name="E" unicode="&#xcb;" horiz-adv-x="1187" 
d="M1089 1223h-178v104h-528v-485h420v61h178v-306h-178v67h-420v-486h528v104h178v-282h-1003v178h119v1149h-119v178h119v1h178v-1h706v-282z" />
    <glyph glyph-name="E" unicode="&#xca;" horiz-adv-x="1187" 
d="M1089 1223h-178v104h-528v-485h420v61h178v-306h-178v67h-420v-486h528v104h178v-282h-1003v178h119v1149h-119v178h119v1h178v-1h706v-282z" />
    <glyph glyph-name="E" unicode="&#xc9;" horiz-adv-x="1187" 
d="M1089 1223h-178v104h-528v-485h420v61h178v-306h-178v67h-420v-486h528v104h178v-282h-1003v178h119v1149h-119v178h119v1h178v-1h706v-282z" />
    <glyph glyph-name="E" unicode="&#xc8;" horiz-adv-x="1187" 
d="M1089 1223h-178v104h-528v-485h420v61h178v-306h-178v67h-420v-486h528v104h178v-282h-1003v178h119v1149h-119v178h119v1h178v-1h706v-282z" />
    <glyph glyph-name="F" unicode="F" horiz-adv-x="1116" 
d="M383 1505h706v-282h-178v104h-528v-618h187v64h178v-306h-178v64h-187v-353h118v-178h-415v178h119v1149h-119v178h119v1h178v-1z" />
    <glyph glyph-name="G" unicode="G" horiz-adv-x="1583" 
d="M828 1327q-156 0 -288 -77t-209 -209.5t-77 -288.5t77 -288t209 -209t288 -77q128 0 242.5 53t196.5 150v304h-426v177h604v-862h-178v141q-195 -141 -439 -141q-153 0 -292 60t-240 160.5t-160.5 240t-59.5 292.5t59.5 292t160.5 240t240 160.5t292 59.5q245 0 439 -140
v125h178v-335l-160 -54q-82 108 -202 167t-255 59z" />
    <glyph glyph-name="H" unicode="H" horiz-adv-x="1466" 
d="M1379 1327h-118v-1149h118v-178h-415v178h119v408h-700v-408h118v-178h-415v178h119v1149h-119v178h119v1h178v-1h118v-178h-118v-563h700v563h-119v178h119v1h178v-1h118v-178z" />
    <glyph glyph-name="I" unicode="I" horiz-adv-x="720" 
d="M657 1327h-208v-1149h208v-178h-594v178h208v1149h-208v178h208v1h178v-1h208v-178z" />
    <glyph glyph-name="I" unicode="&#xcf;" horiz-adv-x="720" 
d="M657 1327h-208v-1149h208v-178h-594v178h208v1149h-208v178h208v1h178v-1h208v-178z" />
    <glyph glyph-name="I" unicode="&#xce;" horiz-adv-x="720" 
d="M657 1327h-208v-1149h208v-178h-594v178h208v1149h-208v178h208v1h178v-1h208v-178z" />
    <glyph glyph-name="I" unicode="&#xcd;" horiz-adv-x="720" 
d="M657 1327h-208v-1149h208v-178h-594v178h208v1149h-208v178h208v1h178v-1h208v-178z" />
    <glyph glyph-name="I" unicode="&#xcc;" horiz-adv-x="720" 
d="M657 1327h-208v-1149h208v-178h-594v178h208v1149h-208v178h208v1h178v-1h208v-178z" />
    <glyph glyph-name="J" unicode="J" horiz-adv-x="1038" 
d="M959 1505v-178h-96v-930q0 -164 -116.5 -280.5t-280.5 -116.5t-280 116.5t-116 280.5v356h178v-356q0 -91 63.5 -155t154.5 -64t155 64t64 155v930h-363v178h363v1h178v-1h96z" />
    <glyph glyph-name="K" unicode="K" horiz-adv-x="1482" 
d="M1213 178h244v-178h-593v178h144l-340 604l-219 -254v-350h208v-178h-594v178h208v1149h-208v178h594v-178h-208v-527l453 527h-102v178h469v-178h-132l-346 -402z" />
    <glyph glyph-name="L" unicode="L" horiz-adv-x="1118" 
d="M911 282h178v-282h-1003v178h119v1149h-119v178h119v1h178v-1h118v-178h-118v-1149h528v104z" />
    <glyph glyph-name="M" unicode="M" horiz-adv-x="1841" 
d="M1754 1327h-118v-1149h118v-178h-415v178h119v845l-489 -1023h-148l-438 994v-816h118v-178h-415v178h119v1149h-119v178h119v1h178v-1h118v-178h-71l469 -1062l507 1062h-67v178h119v1h178v-1h118v-178z" />
    <glyph glyph-name="N" unicode="N" horiz-adv-x="1667" 
d="M1580 1327h-119v-1149h119v-178h-470l-664 1327h-63v-1149h118v-178h-415v178h119v1149h-119v178h119v1h178v-1h173l664 -1327h63v1149h-118v178h118v1h178v-1h119v-178z" />
    <glyph glyph-name="N" unicode="&#xd1;" horiz-adv-x="1667" 
d="M1580 1327h-119v-1149h119v-178h-470l-664 1327h-63v-1149h118v-178h-415v178h119v1149h-119v178h119v1h178v-1h173l664 -1327h63v1149h-118v178h118v1h178v-1h119v-178z" />
    <glyph glyph-name="O" unicode="O" horiz-adv-x="1656" 
d="M1426 1209q155 -203 155 -456q0 -254 -155 -457q-108 -141 -264.5 -218.5t-333.5 -77.5q-153 0 -292 59.5t-240 160.5t-160.5 240t-59.5 292t59.5 292.5t160.5 240t240 160.5t292 60q177 0 333.5 -77.5t264.5 -218.5zM1285 404q118 155 118 349q0 193 -118 348
q-82 108 -202 167t-255 59q-156 0 -288 -77t-209 -209t-77 -288t77 -288.5t209 -209.5t288 -77q135 0 255 59t202 167z" />
    <glyph glyph-name="O" unicode="&#xd8;" horiz-adv-x="1656" 
d="M1426 1209q155 -203 155 -456q0 -254 -155 -457q-108 -141 -264.5 -218.5t-333.5 -77.5q-153 0 -292 59.5t-240 160.5t-160.5 240t-59.5 292t59.5 292.5t160.5 240t240 160.5t292 60q177 0 333.5 -77.5t264.5 -218.5zM1285 404q118 155 118 349q0 193 -118 348
q-82 108 -202 167t-255 59q-156 0 -288 -77t-209 -209t-77 -288t77 -288.5t209 -209.5t288 -77q135 0 255 59t202 167z" />
    <glyph glyph-name="O" unicode="&#xd6;" horiz-adv-x="1656" 
d="M1426 1209q155 -203 155 -456q0 -254 -155 -457q-108 -141 -264.5 -218.5t-333.5 -77.5q-153 0 -292 59.5t-240 160.5t-160.5 240t-59.5 292t59.5 292.5t160.5 240t240 160.5t292 60q177 0 333.5 -77.5t264.5 -218.5zM1285 404q118 155 118 349q0 193 -118 348
q-82 108 -202 167t-255 59q-156 0 -288 -77t-209 -209t-77 -288t77 -288.5t209 -209.5t288 -77q135 0 255 59t202 167z" />
    <glyph glyph-name="O" unicode="&#xd5;" horiz-adv-x="1656" 
d="M1426 1209q155 -203 155 -456q0 -254 -155 -457q-108 -141 -264.5 -218.5t-333.5 -77.5q-153 0 -292 59.5t-240 160.5t-160.5 240t-59.5 292t59.5 292.5t160.5 240t240 160.5t292 60q177 0 333.5 -77.5t264.5 -218.5zM1285 404q118 155 118 349q0 193 -118 348
q-82 108 -202 167t-255 59q-156 0 -288 -77t-209 -209t-77 -288t77 -288.5t209 -209.5t288 -77q135 0 255 59t202 167z" />
    <glyph glyph-name="O" unicode="&#xd4;" horiz-adv-x="1656" 
d="M1426 1209q155 -203 155 -456q0 -254 -155 -457q-108 -141 -264.5 -218.5t-333.5 -77.5q-153 0 -292 59.5t-240 160.5t-160.5 240t-59.5 292t59.5 292.5t160.5 240t240 160.5t292 60q177 0 333.5 -77.5t264.5 -218.5zM1285 404q118 155 118 349q0 193 -118 348
q-82 108 -202 167t-255 59q-156 0 -288 -77t-209 -209t-77 -288t77 -288.5t209 -209.5t288 -77q135 0 255 59t202 167z" />
    <glyph glyph-name="O" unicode="&#xd3;" horiz-adv-x="1656" 
d="M1426 1209q155 -203 155 -456q0 -254 -155 -457q-108 -141 -264.5 -218.5t-333.5 -77.5q-153 0 -292 59.5t-240 160.5t-160.5 240t-59.5 292t59.5 292.5t160.5 240t240 160.5t292 60q177 0 333.5 -77.5t264.5 -218.5zM1285 404q118 155 118 349q0 193 -118 348
q-82 108 -202 167t-255 59q-156 0 -288 -77t-209 -209t-77 -288t77 -288.5t209 -209.5t288 -77q135 0 255 59t202 167z" />
    <glyph glyph-name="O" unicode="&#xd2;" horiz-adv-x="1656" 
d="M1426 1209q155 -203 155 -456q0 -254 -155 -457q-108 -141 -264.5 -218.5t-333.5 -77.5q-153 0 -292 59.5t-240 160.5t-160.5 240t-59.5 292t59.5 292.5t160.5 240t240 160.5t292 60q177 0 333.5 -77.5t264.5 -218.5zM1285 404q118 155 118 349q0 193 -118 348
q-82 108 -202 167t-255 59q-156 0 -288 -77t-209 -209t-77 -288t77 -288.5t209 -209.5t288 -77q135 0 255 59t202 167z" />
    <glyph glyph-name="P" unicode="P" horiz-adv-x="1357" 
d="M826 1506q196 0 336 -140t140 -336t-140 -336t-336 -140h-443v-376h167v-178h-464v178h119v1150h-119v178h740zM826 732q123 0 210.5 87.5t87.5 210.5t-87.5 210.5t-210.5 87.5h-443v-596h443z" />
    <glyph glyph-name="Q" unicode="Q" horiz-adv-x="1656" 
d="M1995 -209q-164 -137 -352 -137q-300 0 -668 360q-75 -14 -147 -14q-153 0 -292 60t-240 160.5t-160.5 240t-59.5 292.5t59.5 292t160.5 240t240 160.5t292 59.5q177 0 333.5 -77.5t264.5 -218.5q155 -203 155 -456q0 -254 -155 -457q-107 -141 -260 -217
q75 -68 142.5 -116.5t143 -84t145 -43.5t143 14t140.5 78zM828 1327q-156 0 -288 -77t-209 -209.5t-77 -288.5q0 -91 28 -178q44 10 90 14t111 -4t128 -30.5t138 -72.5t144 -123q35 -37 49 -53q28 -31 86 -91q156 58 257 190q118 155 118 349q0 193 -118 348
q-82 108 -202 167t-255 59zM369 409q79 -105 196 -166t252 -64l-6 6q-9 10 -24.5 27t-22.5 24q-183 193 -395 173z" />
    <glyph glyph-name="R" unicode="R" horiz-adv-x="1427" 
d="M1177 178h185v-178h-463v178h61l-306 440h-271v-440h167v-178h-464v178h119v1150h-119v178h772q120 0 222.5 -59.5t162 -162t59.5 -222.5q0 -118 -58 -219.5t-157 -161.5t-217 -63zM383 1328v-532h475q110 0 188 78t78 188t-78 188t-188 78h-475z" />
    <glyph glyph-name="S" unicode="S" horiz-adv-x="1296" 
d="M1208 408q6 -125 -75 -235t-216 -160q-120 -45 -252 -45q-236 0 -417 138v-108h-178v339l165 45q60 -101 162 -163t219 -71.5t239 32.5q72 27 125.5 88.5t49.5 130.5q-3 66 -54 121.5t-120 89.5t-203 73q-85 24 -148 47q-116 44 -200 113.5t-121 153.5q-58 130 0 273
q25 62 69.5 110t98 76t116.5 44.5t124 15.5t121 -10q128 -24 268 -145l6 131l177 -8q-15 -341 -15 -342l-160 -49q-52 68 -140 145.5t-169 92.5q-105 19 -201.5 -13.5t-129.5 -114.5q-29 -72 -2 -134q23 -51 81 -96.5t139 -75.5q54 -20 136 -44q156 -45 233 -83
q122 -61 194.5 -157t77.5 -205z" />
    <glyph glyph-name="T" unicode="T" horiz-adv-x="1300" 
d="M739 1505h534v-282h-178v104h-356v-1149h118v-178h-415v178h119v1149h-356v-104h-178v282h534v1h178v-1z" />
    <glyph glyph-name="U" unicode="U" horiz-adv-x="1417" 
d="M1353 1505v-178h-118v-808q0 -105 -41 -201.5t-110.5 -166t-166 -110.5t-201.5 -41t-201.5 41t-166 110.5t-110.5 166t-41 201.5v808h-144v178h415v-178h-93v-808q0 -141 100 -241t241 -100t241 100t100 241v808h-119v178h415z" />
    <glyph glyph-name="U" unicode="&#xdc;" horiz-adv-x="1417" 
d="M1353 1505v-178h-118v-808q0 -105 -41 -201.5t-110.5 -166t-166 -110.5t-201.5 -41t-201.5 41t-166 110.5t-110.5 166t-41 201.5v808h-144v178h415v-178h-93v-808q0 -141 100 -241t241 -100t241 100t100 241v808h-119v178h415z" />
    <glyph glyph-name="U" unicode="&#xdb;" horiz-adv-x="1417" 
d="M1353 1505v-178h-118v-808q0 -105 -41 -201.5t-110.5 -166t-166 -110.5t-201.5 -41t-201.5 41t-166 110.5t-110.5 166t-41 201.5v808h-144v178h415v-178h-93v-808q0 -141 100 -241t241 -100t241 100t100 241v808h-119v178h415z" />
    <glyph glyph-name="U" unicode="&#xda;" horiz-adv-x="1417" 
d="M1353 1505v-178h-118v-808q0 -105 -41 -201.5t-110.5 -166t-166 -110.5t-201.5 -41t-201.5 41t-166 110.5t-110.5 166t-41 201.5v808h-144v178h415v-178h-93v-808q0 -141 100 -241t241 -100t241 100t100 241v808h-119v178h415z" />
    <glyph glyph-name="U" unicode="&#xd9;" horiz-adv-x="1417" 
d="M1353 1505v-178h-118v-808q0 -105 -41 -201.5t-110.5 -166t-166 -110.5t-201.5 -41t-201.5 41t-166 110.5t-110.5 166t-41 201.5v808h-144v178h415v-178h-93v-808q0 -141 100 -241t241 -100t241 100t100 241v808h-119v178h415z" />
    <glyph glyph-name="V" unicode="V" horiz-adv-x="1505" 
d="M1489 1327h-146l-459 -1149h100v-178h-462v178h99l-459 1149h-146v178h463v-178h-125l399 -998l398 998h-124v178h462v-178z" />
    <glyph glyph-name="W" unicode="W" horiz-adv-x="2177" 
d="M2156 1327h-114l-395 -1149h74v-178h-397v178h74l-310 902l-310 -902h74v-178h-397v178h74l-395 1149h-114v178h398v-178h-96l332 -964l331 964h-96v178h398v-178h-96l332 -964l331 964h-96v178h398v-178z" />
    <glyph glyph-name="X" unicode="X" horiz-adv-x="1427" 
d="M1196 178h185v-178h-411v178h10l-284 410l-291 -410h55v-178h-411v178h138l402 566l-403 583h-137v178h411v-178h-58l296 -429l305 429h-55v178h411v-178h-138l-415 -584z" />
    <glyph glyph-name="Y" unicode="Y" horiz-adv-x="1363" 
d="M1214 1360l-427 -870v-312h224v-178h-593v178h191v312l-473 870h-124v178h415v-178h-57l323 -593l291 593h-49v178h415v-178h-136z" />
    <glyph glyph-name="Y" unicode="&#x178;" horiz-adv-x="1363" 
d="M1214 1360l-427 -870v-312h224v-178h-593v178h191v312l-473 870h-124v178h415v-178h-57l323 -593l291 593h-49v178h415v-178h-136z" />
    <glyph glyph-name="Y" unicode="&#xdd;" horiz-adv-x="1363" 
d="M1214 1360l-427 -870v-312h224v-178h-593v178h191v312l-473 870h-124v178h415v-178h-57l323 -593l291 593h-49v178h415v-178h-136z" />
    <glyph glyph-name="Z" unicode="Z" horiz-adv-x="1107" 
d="M871 310h178v-310h-893l-97 174l716 1153h-486v-146h-178v324h779l96 -174l-715 -1153h600v132z" />
    <glyph glyph-name="a" unicode="a" horiz-adv-x="1112" 
d="M968 201q23 -23 87 -23v-178q-137 0 -213 76q-46 47 -66 116q-49 -92 -131.5 -150t-190.5 -58h-11q-109 2 -197 51.5t-122 127.5q-44 91 -36.5 199t75.5 185q93 107 299 114q172 5 289 -75q-4 66 -16 118.5t-26.5 85.5t-36.5 56.5t-39 35t-42 17.5t-37.5 7t-32.5 1
q-111 0 -160 -52q-38 -41 -38 -111l-177 -16q-3 2 -0.5 30t6.5 60t24 76.5t52 79.5q101 111 293 111q61 0 115 -13.5t110 -52.5t95.5 -101.5t65 -167.5t25.5 -243v-42q0 -80 1 -117t9.5 -83.5t25.5 -63.5zM754 390v76v11q-198 64 -342 37q-91 -17 -127 -84
q-22 -43 -22.5 -94t24.5 -101q20 -38 58.5 -54.5t101.5 -18.5q24 -1 50.5 1.5t67 16t74.5 36t66.5 68t48.5 106.5z" />
    <glyph glyph-name="a" unicode="&#xe5;" horiz-adv-x="1112" 
d="M968 201q23 -23 87 -23v-178q-137 0 -213 76q-46 47 -66 116q-49 -92 -131.5 -150t-190.5 -58h-11q-109 2 -197 51.5t-122 127.5q-44 91 -36.5 199t75.5 185q93 107 299 114q172 5 289 -75q-4 66 -16 118.5t-26.5 85.5t-36.5 56.5t-39 35t-42 17.5t-37.5 7t-32.5 1
q-111 0 -160 -52q-38 -41 -38 -111l-177 -16q-3 2 -0.5 30t6.5 60t24 76.5t52 79.5q101 111 293 111q61 0 115 -13.5t110 -52.5t95.5 -101.5t65 -167.5t25.5 -243v-42q0 -80 1 -117t9.5 -83.5t25.5 -63.5zM754 390v76v11q-198 64 -342 37q-91 -17 -127 -84
q-22 -43 -22.5 -94t24.5 -101q20 -38 58.5 -54.5t101.5 -18.5q24 -1 50.5 1.5t67 16t74.5 36t66.5 68t48.5 106.5z" />
    <glyph glyph-name="a" unicode="&#xe4;" horiz-adv-x="1112" 
d="M968 201q23 -23 87 -23v-178q-137 0 -213 76q-46 47 -66 116q-49 -92 -131.5 -150t-190.5 -58h-11q-109 2 -197 51.5t-122 127.5q-44 91 -36.5 199t75.5 185q93 107 299 114q172 5 289 -75q-4 66 -16 118.5t-26.5 85.5t-36.5 56.5t-39 35t-42 17.5t-37.5 7t-32.5 1
q-111 0 -160 -52q-38 -41 -38 -111l-177 -16q-3 2 -0.5 30t6.5 60t24 76.5t52 79.5q101 111 293 111q61 0 115 -13.5t110 -52.5t95.5 -101.5t65 -167.5t25.5 -243v-42q0 -80 1 -117t9.5 -83.5t25.5 -63.5zM754 390v76v11q-198 64 -342 37q-91 -17 -127 -84
q-22 -43 -22.5 -94t24.5 -101q20 -38 58.5 -54.5t101.5 -18.5q24 -1 50.5 1.5t67 16t74.5 36t66.5 68t48.5 106.5z" />
    <glyph glyph-name="a" unicode="&#xe3;" horiz-adv-x="1112" 
d="M968 201q23 -23 87 -23v-178q-137 0 -213 76q-46 47 -66 116q-49 -92 -131.5 -150t-190.5 -58h-11q-109 2 -197 51.5t-122 127.5q-44 91 -36.5 199t75.5 185q93 107 299 114q172 5 289 -75q-4 66 -16 118.5t-26.5 85.5t-36.5 56.5t-39 35t-42 17.5t-37.5 7t-32.5 1
q-111 0 -160 -52q-38 -41 -38 -111l-177 -16q-3 2 -0.5 30t6.5 60t24 76.5t52 79.5q101 111 293 111q61 0 115 -13.5t110 -52.5t95.5 -101.5t65 -167.5t25.5 -243v-42q0 -80 1 -117t9.5 -83.5t25.5 -63.5zM754 390v76v11q-198 64 -342 37q-91 -17 -127 -84
q-22 -43 -22.5 -94t24.5 -101q20 -38 58.5 -54.5t101.5 -18.5q24 -1 50.5 1.5t67 16t74.5 36t66.5 68t48.5 106.5z" />
    <glyph glyph-name="a" unicode="&#xe2;" horiz-adv-x="1112" 
d="M968 201q23 -23 87 -23v-178q-137 0 -213 76q-46 47 -66 116q-49 -92 -131.5 -150t-190.5 -58h-11q-109 2 -197 51.5t-122 127.5q-44 91 -36.5 199t75.5 185q93 107 299 114q172 5 289 -75q-4 66 -16 118.5t-26.5 85.5t-36.5 56.5t-39 35t-42 17.5t-37.5 7t-32.5 1
q-111 0 -160 -52q-38 -41 -38 -111l-177 -16q-3 2 -0.5 30t6.5 60t24 76.5t52 79.5q101 111 293 111q61 0 115 -13.5t110 -52.5t95.5 -101.5t65 -167.5t25.5 -243v-42q0 -80 1 -117t9.5 -83.5t25.5 -63.5zM754 390v76v11q-198 64 -342 37q-91 -17 -127 -84
q-22 -43 -22.5 -94t24.5 -101q20 -38 58.5 -54.5t101.5 -18.5q24 -1 50.5 1.5t67 16t74.5 36t66.5 68t48.5 106.5z" />
    <glyph glyph-name="a" unicode="&#xe1;" horiz-adv-x="1112" 
d="M968 201q23 -23 87 -23v-178q-137 0 -213 76q-46 47 -66 116q-49 -92 -131.5 -150t-190.5 -58h-11q-109 2 -197 51.5t-122 127.5q-44 91 -36.5 199t75.5 185q93 107 299 114q172 5 289 -75q-4 66 -16 118.5t-26.5 85.5t-36.5 56.5t-39 35t-42 17.5t-37.5 7t-32.5 1
q-111 0 -160 -52q-38 -41 -38 -111l-177 -16q-3 2 -0.5 30t6.5 60t24 76.5t52 79.5q101 111 293 111q61 0 115 -13.5t110 -52.5t95.5 -101.5t65 -167.5t25.5 -243v-42q0 -80 1 -117t9.5 -83.5t25.5 -63.5zM754 390v76v11q-198 64 -342 37q-91 -17 -127 -84
q-22 -43 -22.5 -94t24.5 -101q20 -38 58.5 -54.5t101.5 -18.5q24 -1 50.5 1.5t67 16t74.5 36t66.5 68t48.5 106.5z" />
    <glyph glyph-name="a" unicode="&#xe0;" horiz-adv-x="1112" 
d="M968 201q23 -23 87 -23v-178q-137 0 -213 76q-46 47 -66 116q-49 -92 -131.5 -150t-190.5 -58h-11q-109 2 -197 51.5t-122 127.5q-44 91 -36.5 199t75.5 185q93 107 299 114q172 5 289 -75q-4 66 -16 118.5t-26.5 85.5t-36.5 56.5t-39 35t-42 17.5t-37.5 7t-32.5 1
q-111 0 -160 -52q-38 -41 -38 -111l-177 -16q-3 2 -0.5 30t6.5 60t24 76.5t52 79.5q101 111 293 111q61 0 115 -13.5t110 -52.5t95.5 -101.5t65 -167.5t25.5 -243v-42q0 -80 1 -117t9.5 -83.5t25.5 -63.5zM754 390v76v11q-198 64 -342 37q-91 -17 -127 -84
q-22 -43 -22.5 -94t24.5 -101q20 -38 58.5 -54.5t101.5 -18.5q24 -1 50.5 1.5t67 16t74.5 36t66.5 68t48.5 106.5z" />
    <glyph glyph-name="b" unicode="b" 
d="M698 1077q139 0 257.5 -73.5t187 -199.5t68.5 -274q0 -111 -40.5 -212t-109.5 -174t-164 -116.5t-199 -43.5q-221 0 -336 187v-69l-109 -109h-187v178h113l5 5v1136h-118v178h415v-178h-119v-422q115 187 336 187zM698 162q139 0 237 108t98 260t-98 260.5t-237 108.5
t-237.5 -108.5t-98.5 -260.5t98.5 -260t237.5 -108z" />
    <glyph glyph-name="c" unicode="c" horiz-adv-x="1120" 
d="M624 178q87 0 163.5 38t129.5 107l142 -108q-78 -102 -192 -158.5t-243 -56.5q-111 0 -212 43.5t-174 116.5t-116.5 174t-43.5 212q0 148 73 274t199 199.5t274 73.5q129 0 243 -56.5t192 -158.5l-142 -108q-53 69 -129.5 107t-163.5 38q-152 0 -260 -108.5t-108 -260.5
t108 -260t260 -108z" />
    <glyph glyph-name="c" unicode="&#xe7;" horiz-adv-x="1120" 
d="M624 178q87 0 163.5 38t129.5 107l142 -108q-78 -102 -192 -158.5t-243 -56.5q-111 0 -212 43.5t-174 116.5t-116.5 174t-43.5 212q0 148 73 274t199 199.5t274 73.5q129 0 243 -56.5t192 -158.5l-142 -108q-53 69 -129.5 107t-163.5 38q-152 0 -260 -108.5t-108 -260.5
t108 -260t260 -108z" />
    <glyph glyph-name="d" unicode="d" 
d="M1225 1312h-118v-1136l5 -5h113v-178h-187l-109 109v69q-115 -187 -336 -187q-104 0 -199 43.5t-164 116.5t-109.5 174t-40.5 212q0 148 68.5 274t187 199.5t257.5 73.5q221 0 336 -187v422h-119v178h415v-178zM593 162q139 0 237.5 108t98.5 260v1q0 152 -98.5 260
t-237.5 108t-237 -108.5t-98 -260.5t98 -260t237 -108z" />
    <glyph glyph-name="e" unicode="e" horiz-adv-x="1181" 
d="M1103 546v-88h-836q30 -122 129.5 -201t227.5 -79q79 0 151 32t124 90l132 -118q-78 -87 -184.5 -134.5t-222.5 -47.5q-111 0 -212 43.5t-174 116.5t-116.5 174t-43.5 212q0 145 69.5 271.5t187.5 201t255 74.5q139 0 257.5 -73.5t187 -199.5t68.5 -274zM267 635h648
q-27 121 -118 200.5t-207 79.5q-112 0 -203 -80.5t-120 -199.5z" />
    <glyph glyph-name="e" unicode="&#xeb;" horiz-adv-x="1181" 
d="M1103 546v-88h-836q30 -122 129.5 -201t227.5 -79q79 0 151 32t124 90l132 -118q-78 -87 -184.5 -134.5t-222.5 -47.5q-111 0 -212 43.5t-174 116.5t-116.5 174t-43.5 212q0 145 69.5 271.5t187.5 201t255 74.5q139 0 257.5 -73.5t187 -199.5t68.5 -274zM267 635h648
q-27 121 -118 200.5t-207 79.5q-112 0 -203 -80.5t-120 -199.5z" />
    <glyph glyph-name="e" unicode="&#xea;" horiz-adv-x="1181" 
d="M1103 546v-88h-836q30 -122 129.5 -201t227.5 -79q79 0 151 32t124 90l132 -118q-78 -87 -184.5 -134.5t-222.5 -47.5q-111 0 -212 43.5t-174 116.5t-116.5 174t-43.5 212q0 145 69.5 271.5t187.5 201t255 74.5q139 0 257.5 -73.5t187 -199.5t68.5 -274zM267 635h648
q-27 121 -118 200.5t-207 79.5q-112 0 -203 -80.5t-120 -199.5z" />
    <glyph glyph-name="e" unicode="&#xe9;" horiz-adv-x="1181" 
d="M1103 546v-88h-836q30 -122 129.5 -201t227.5 -79q79 0 151 32t124 90l132 -118q-78 -87 -184.5 -134.5t-222.5 -47.5q-111 0 -212 43.5t-174 116.5t-116.5 174t-43.5 212q0 145 69.5 271.5t187.5 201t255 74.5q139 0 257.5 -73.5t187 -199.5t68.5 -274zM267 635h648
q-27 121 -118 200.5t-207 79.5q-112 0 -203 -80.5t-120 -199.5z" />
    <glyph glyph-name="e" unicode="&#xe8;" horiz-adv-x="1181" 
d="M1103 546v-88h-836q30 -122 129.5 -201t227.5 -79q79 0 151 32t124 90l132 -118q-78 -87 -184.5 -134.5t-222.5 -47.5q-111 0 -212 43.5t-174 116.5t-116.5 174t-43.5 212q0 145 69.5 271.5t187.5 201t255 74.5q139 0 257.5 -73.5t187 -199.5t68.5 -274zM267 635h648
q-27 121 -118 200.5t-207 79.5q-112 0 -203 -80.5t-120 -199.5z" />
    <glyph glyph-name="f" unicode="f" horiz-adv-x="745" 
d="M381 1139v-66h326v-178h-326v-717h118v-178h-415v178h119v717h-119v178h119v66q0 116 26.5 204.5t71.5 138t97.5 73.5t110.5 24q70 0 145.5 -26t105.5 -44.5t51 -33.5l-105 -143q-4 4 -28.5 18.5t-74.5 32.5t-94 18q-42 0 -70.5 -32.5t-39.5 -84t-14.5 -84t-3.5 -61.5z
" />
    <glyph glyph-name="g" unicode="g" horiz-adv-x="1331" 
d="M984 1087h290v-207h-136l-17 -58v-822q0 -78 -17 -150.5t-56.5 -140.5t-98 -118.5t-148.5 -80.5t-202 -30q-69 0 -134.5 17t-114 42t-93 60t-72 64t-52 61t-32 45t-12.5 22l182 97q4 -8 15 -24.5t41 -49t65.5 -59.5t91 -47.5t115.5 -20.5q316 0 316 313v165
q-115 -165 -322 -165q-104 0 -199 43.5t-164 116.5t-109.5 174t-40.5 212q0 148 68.5 274t187 199.5t257.5 73.5q223 0 337 -189zM593 178q113 0 202 74t120 189v211q-31 115 -120 189t-202 74q-139 0 -237 -108.5t-98 -260.5t98 -260t237 -108z" />
    <glyph glyph-name="h" unicode="h" horiz-adv-x="1230" 
d="M1049 752v-574h119v-178h-415v178h118v574q0 70 -42 112q-49 51 -144 51q-65 0 -116.5 -23t-86 -65.5t-59 -94.5t-37.5 -117.5t-18.5 -127t-5.5 -129.5v-180h119v-178h-415v178h118v1149h-118v178h118v1h178v-1h119v-178h-119v-486q94 252 323 252q167 0 271 -104
q93 -95 93 -237z" />
    <glyph glyph-name="i" unicode="i" horiz-adv-x="702" 
d="M455 178h208v-178h-593v178h207v728h-207v178h385v-906zM339 1248q-50 0 -85.5 35.5t-35.5 85.5t35.5 85.5t85.5 35.5t85.5 -35.5t35.5 -85.5t-35.5 -85.5t-85.5 -35.5z" />
    <glyph glyph-name="i" unicode="&#xef;" horiz-adv-x="702" 
d="M455 178h208v-178h-593v178h207v728h-207v178h385v-906zM339 1248q-50 0 -85.5 35.5t-35.5 85.5t35.5 85.5t85.5 35.5t85.5 -35.5t35.5 -85.5t-35.5 -85.5t-85.5 -35.5z" />
    <glyph glyph-name="i" unicode="&#xee;" horiz-adv-x="702" 
d="M455 178h208v-178h-593v178h207v728h-207v178h385v-906zM339 1248q-50 0 -85.5 35.5t-35.5 85.5t35.5 85.5t85.5 35.5t85.5 -35.5t35.5 -85.5t-35.5 -85.5t-85.5 -35.5z" />
    <glyph glyph-name="i" unicode="&#xed;" horiz-adv-x="702" 
d="M455 178h208v-178h-593v178h207v728h-207v178h385v-906zM339 1248q-50 0 -85.5 35.5t-35.5 85.5t35.5 85.5t85.5 35.5t85.5 -35.5t35.5 -85.5t-35.5 -85.5t-85.5 -35.5z" />
    <glyph glyph-name="i" unicode="&#xec;" horiz-adv-x="702" 
d="M455 178h208v-178h-593v178h207v728h-207v178h385v-906zM339 1248q-50 0 -85.5 35.5t-35.5 85.5t35.5 85.5t85.5 35.5t85.5 -35.5t35.5 -85.5t-35.5 -85.5t-85.5 -35.5z" />
    <glyph glyph-name="j" unicode="j" horiz-adv-x="610" 
d="M37 1084h440v-1084q0 -237 -135 -371t-373 -134q-68 0 -132 17t-110 40t-90.5 59t-70 61.5t-51 60t-30.5 43t-13 21.5l156 85q6 -11 16 -26t42 -50.5t68 -62.5t94 -48.5t121 -21.5q330 0 330 327v906h-262v178zM291 1248q-50 0 -85.5 35.5t-35.5 85.5t35.5 85.5
t85.5 35.5t85.5 -35.5t35.5 -85.5t-35.5 -85.5t-85.5 -35.5z" />
    <glyph glyph-name="k" unicode="k" horiz-adv-x="1230" 
d="M1023 178h164v-178h-415v178h25l-252 320l-183 -194v-126h119v-178h-415v178h118v1149h-118v178h118v1h178v-1h119v-178h-119v-764l323 344h-61v178h415v-178h-110l-261 -278z" />
    <glyph glyph-name="l" unicode="l" horiz-adv-x="671" 
d="M424 178h208v-178h-593v178h208v1149h-208v178h385v-1327z" />
    <glyph glyph-name="m" unicode="m" horiz-adv-x="1806" 
d="M1626 178h118v-178h-415v178h119v574q0 70 -42 112q-50 51 -145 51q-107 0 -165 -61t-82 -169v-507h119v-178h-415v178h118v574q0 70 -42 112q-50 51 -144 51q-64 0 -112 -21.5t-76.5 -68.5t-46 -91t-24.5 -120.5t-8.5 -124t-1.5 -131.5v-180h118v-178h-415v178h119v723
l-6 5h-113v178h187l110 -109v-93q24 66 56.5 110t69.5 65t70 28.5t73 7.5q167 0 271 -104q44 -44 70 -110q24 66 56.5 111t69.5 66t70.5 29t73.5 8q167 0 271 -104q94 -96 94 -237v-574z" />
    <glyph glyph-name="n" unicode="n" horiz-adv-x="1249" 
d="M1068 752v-574h118v-178h-415v178h119v574q0 69 -43 112q-49 51 -144 51q-77 0 -135.5 -34.5t-93.5 -88t-56.5 -129.5t-29 -149t-7.5 -156v-180h118v-178h-415v178h119v723l-6 5h-113v178h187l110 -109v-134q94 252 322 252q167 0 271 -104q94 -96 94 -237z" />
    <glyph glyph-name="n" unicode="&#xf1;" horiz-adv-x="1249" 
d="M1068 752v-574h118v-178h-415v178h119v574q0 69 -43 112q-49 51 -144 51q-77 0 -135.5 -34.5t-93.5 -88t-56.5 -129.5t-29 -149t-7.5 -156v-180h118v-178h-415v178h119v723l-6 5h-113v178h187l110 -109v-134q94 252 322 252q167 0 271 -104q94 -96 94 -237z" />
    <glyph glyph-name="o" unicode="o" horiz-adv-x="1249" 
d="M1059 878q112 -147 112 -332q0 -184 -112 -331q-78 -102 -192 -158.5t-243 -56.5q-111 0 -212 43.5t-174 116.5t-116.5 174t-43.5 212q0 148 73 274t199 199.5t274 73.5q129 0 243 -56.5t192 -158.5zM917 323q76 101 76 224q0 122 -76 223q-53 69 -129.5 107t-163.5 38
q-152 0 -260 -108t-108 -260t108 -260.5t260 -108.5q87 0 163.5 38t129.5 107z" />
    <glyph glyph-name="o" unicode="&#xf8;" horiz-adv-x="1249" 
d="M1059 878q112 -147 112 -332q0 -184 -112 -331q-78 -102 -192 -158.5t-243 -56.5q-111 0 -212 43.5t-174 116.5t-116.5 174t-43.5 212q0 148 73 274t199 199.5t274 73.5q129 0 243 -56.5t192 -158.5zM917 323q76 101 76 224q0 122 -76 223q-53 69 -129.5 107t-163.5 38
q-152 0 -260 -108t-108 -260t108 -260.5t260 -108.5q87 0 163.5 38t129.5 107z" />
    <glyph glyph-name="o" unicode="&#xf6;" horiz-adv-x="1249" 
d="M1059 878q112 -147 112 -332q0 -184 -112 -331q-78 -102 -192 -158.5t-243 -56.5q-111 0 -212 43.5t-174 116.5t-116.5 174t-43.5 212q0 148 73 274t199 199.5t274 73.5q129 0 243 -56.5t192 -158.5zM917 323q76 101 76 224q0 122 -76 223q-53 69 -129.5 107t-163.5 38
q-152 0 -260 -108t-108 -260t108 -260.5t260 -108.5q87 0 163.5 38t129.5 107z" />
    <glyph glyph-name="o" unicode="&#xf5;" horiz-adv-x="1249" 
d="M1059 878q112 -147 112 -332q0 -184 -112 -331q-78 -102 -192 -158.5t-243 -56.5q-111 0 -212 43.5t-174 116.5t-116.5 174t-43.5 212q0 148 73 274t199 199.5t274 73.5q129 0 243 -56.5t192 -158.5zM917 323q76 101 76 224q0 122 -76 223q-53 69 -129.5 107t-163.5 38
q-152 0 -260 -108t-108 -260t108 -260.5t260 -108.5q87 0 163.5 38t129.5 107z" />
    <glyph glyph-name="o" unicode="&#xf4;" horiz-adv-x="1249" 
d="M1059 878q112 -147 112 -332q0 -184 -112 -331q-78 -102 -192 -158.5t-243 -56.5q-111 0 -212 43.5t-174 116.5t-116.5 174t-43.5 212q0 148 73 274t199 199.5t274 73.5q129 0 243 -56.5t192 -158.5zM917 323q76 101 76 224q0 122 -76 223q-53 69 -129.5 107t-163.5 38
q-152 0 -260 -108t-108 -260t108 -260.5t260 -108.5q87 0 163.5 38t129.5 107z" />
    <glyph glyph-name="o" unicode="&#xf3;" horiz-adv-x="1249" 
d="M1059 878q112 -147 112 -332q0 -184 -112 -331q-78 -102 -192 -158.5t-243 -56.5q-111 0 -212 43.5t-174 116.5t-116.5 174t-43.5 212q0 148 73 274t199 199.5t274 73.5q129 0 243 -56.5t192 -158.5zM917 323q76 101 76 224q0 122 -76 223q-53 69 -129.5 107t-163.5 38
q-152 0 -260 -108t-108 -260t108 -260.5t260 -108.5q87 0 163.5 38t129.5 107z" />
    <glyph glyph-name="o" unicode="&#xf2;" horiz-adv-x="1249" 
d="M1059 878q112 -147 112 -332q0 -184 -112 -331q-78 -102 -192 -158.5t-243 -56.5q-111 0 -212 43.5t-174 116.5t-116.5 174t-43.5 212q0 148 73 274t199 199.5t274 73.5q129 0 243 -56.5t192 -158.5zM917 323q76 101 76 224q0 122 -76 223q-53 69 -129.5 107t-163.5 38
q-152 0 -260 -108t-108 -260t108 -260.5t260 -108.5q87 0 163.5 38t129.5 107z" />
    <glyph glyph-name="p" unicode="p" 
d="M698 1093q104 0 199 -43.5t164 -116.5t109.5 -174t40.5 -212q0 -148 -68.5 -274t-187 -199.5t-257.5 -73.5q-221 0 -336 187v-422h119v-178h-415v178h118v1136l-5 5h-113v178h187l109 -109v-69q115 187 336 187zM698 178q139 0 237 108t98 260t-98 260.5t-237 108.5
t-237.5 -108.5t-98.5 -260.5t98.5 -260t237.5 -108z" />
    <glyph glyph-name="q" unicode="q" 
d="M1112 906l-5 -5v-1136h118v-178h-415v178h119v422q-115 -187 -336 -187q-104 0 -199 43.5t-164 116.5t-109.5 174t-40.5 212q0 148 68.5 274t187 199.5t257.5 73.5q221 0 336 -187v69l109 109h187v-178h-113zM593 178q139 0 237.5 108t98.5 260v1q0 152 -98.5 260
t-237.5 108t-237 -108.5t-98 -260.5t98 -260t237 -108z" />
    <glyph glyph-name="r" unicode="r" horiz-adv-x="849" 
d="M703 1093q56 0 108 -13l-38 -237q-31 9 -70 9q-63 0 -114.5 -22.5t-85.5 -63t-58.5 -91.5t-37.5 -114.5t-19 -124t-7 -127.5v-131h118v-178h-415v178h119v723l-6 5h-113v178h187l110 -109v-134q94 252 322 252z" />
    <glyph glyph-name="s" unicode="s" horiz-adv-x="974" 
d="M557 618q77 -28 115 -43.5t93.5 -47.5t80 -65t40 -85.5t7.5 -118.5q-17 -132 -133.5 -208.5t-301.5 -76.5q-72 0 -138.5 24t-108.5 55.5t-77.5 70t-48 57.5t-17.5 29l155 86q5 -8 11.5 -17.5t29.5 -34.5t47.5 -43.5t64.5 -33.5t82 -15q45 0 86.5 7t80 21.5t63.5 40.5
t29 60q5 42 -6.5 62.5t-56 44t-157.5 64.5q-95 35 -139 52q-74 29 -127 70.5t-79.5 87t-36 90t-3.5 87.5q14 100 98 166.5t210 77.5q93 8 172 -9.5t122.5 -43t78 -62t43.5 -52t14 -27.5l-82 -34l-81 -36q-3 5 -8 12.5t-25 24.5t-45.5 29t-71.5 19t-102 2q-66 -6 -104 -33
t-43 -60q-6 -39 31 -78.5t104 -65.5q45 -17 134 -50z" />
    <glyph glyph-name="t" unicode="t" horiz-adv-x="913" 
d="M704 249l166 -63q-11 -29 -35 -58.5t-63.5 -59.5t-102.5 -49t-138 -19q-136 0 -223 87q-45 45 -70.5 111.5t-29 98t-3.5 54.5v544h-156v178h156v312h178v-312h374v-178h-374v-544q0 -18 4 -40t17 -55.5t46 -55.5t81 -22q38 0 70 7.5t50.5 17.5t31 21t17 17.5t4.5 7.5z
" />
    <glyph glyph-name="u" unicode="u" horiz-adv-x="1271" 
d="M1068 906v-723l6 -5h113v-178h-187l-96 96q-120 -96 -274 -96q-181 0 -309.5 128.5t-128.5 309.5v469h-143v178h321v-647q0 -107 76.5 -183.5t183.5 -76.5t183.5 76.5t76.5 183.5v468h-118v178h415v-178h-119z" />
    <glyph glyph-name="u" unicode="&#xfc;" horiz-adv-x="1271" 
d="M1068 906v-723l6 -5h113v-178h-187l-96 96q-120 -96 -274 -96q-181 0 -309.5 128.5t-128.5 309.5v469h-143v178h321v-647q0 -107 76.5 -183.5t183.5 -76.5t183.5 76.5t76.5 183.5v468h-118v178h415v-178h-119z" />
    <glyph glyph-name="u" unicode="&#xfb;" horiz-adv-x="1271" 
d="M1068 906v-723l6 -5h113v-178h-187l-96 96q-120 -96 -274 -96q-181 0 -309.5 128.5t-128.5 309.5v469h-143v178h321v-647q0 -107 76.5 -183.5t183.5 -76.5t183.5 76.5t76.5 183.5v468h-118v178h415v-178h-119z" />
    <glyph glyph-name="u" unicode="&#xfa;" horiz-adv-x="1271" 
d="M1068 906v-723l6 -5h113v-178h-187l-96 96q-120 -96 -274 -96q-181 0 -309.5 128.5t-128.5 309.5v469h-143v178h321v-647q0 -107 76.5 -183.5t183.5 -76.5t183.5 76.5t76.5 183.5v468h-118v178h415v-178h-119z" />
    <glyph glyph-name="u" unicode="&#xf9;" horiz-adv-x="1271" 
d="M1068 906v-723l6 -5h113v-178h-187l-96 96q-120 -96 -274 -96q-181 0 -309.5 128.5t-128.5 309.5v469h-143v178h321v-647q0 -107 76.5 -183.5t183.5 -76.5t183.5 76.5t76.5 183.5v468h-118v178h415v-178h-119z" />
    <glyph glyph-name="v" unicode="v" horiz-adv-x="1224" 
d="M1188 907h-145l-291 -729h100v-178h-463v178h98l-305 729h-147v178h462v-178h-122l244 -583l232 583h-125v178h462v-178z" />
    <glyph glyph-name="w" unicode="w" horiz-adv-x="1652" 
d="M1617 911h-129l-280 -737h87v-170h-421v170h89l-137 378l-137 -378h89v-170h-421v170h88l-281 737h-129v170h420v-170h-110l221 -579l170 469l-40 110h-128v170h516v-170h-128l-40 -110l170 -469l221 579h-110v170h420v-170z" />
    <glyph glyph-name="x" unicode="x" horiz-adv-x="1046" 
d="M868 178h112v-178h-281v110l-187 271l-161 -227v-154h-281v178h79l255 359l-256 370h-78v178h281v-158l163 -236l170 240v154h281v-178h-80l-264 -372z" />
    <glyph glyph-name="y" unicode="y" horiz-adv-x="1228" 
d="M730 1085h463v-178h-146l-417 -1045q-58 -144 -185 -230.5t-282 -86.5v178q100 0 181.5 56t119.5 149l33 82q-86 23 -147 89t-76 157l-105 651h-130v178h462v-178h-151l100 -623q7 -43 39 -72t76 -33l290 728h-125v178z" />
    <glyph glyph-name="y" unicode="&#xff;" horiz-adv-x="1228" 
d="M730 1085h463v-178h-146l-417 -1045q-58 -144 -185 -230.5t-282 -86.5v178q100 0 181.5 56t119.5 149l33 82q-86 23 -147 89t-76 157l-105 651h-130v178h462v-178h-151l100 -623q7 -43 39 -72t76 -33l290 728h-125v178z" />
    <glyph glyph-name="y" unicode="&#xfd;" horiz-adv-x="1228" 
d="M730 1085h463v-178h-146l-417 -1045q-58 -144 -185 -230.5t-282 -86.5v178q100 0 181.5 56t119.5 149l33 82q-86 23 -147 89t-76 157l-105 651h-130v178h462v-178h-151l100 -623q7 -43 39 -72t76 -33l290 728h-125v178z" />
    <glyph glyph-name="z" unicode="z" horiz-adv-x="974" 
d="M728 240h178v-240h-756l-84 152l563 755h-343v-72h-178v250h677l85 -152l-563 -755h421v62z" />
    <glyph glyph-name="nonbreakingspace" unicode="&#xa0;" horiz-adv-x="716" 
 />
    <glyph glyph-name="softhyphen" unicode="&#xad;" horiz-adv-x="0" 
 />
    <glyph glyph-name="unie900" unicode="&#xe900;" horiz-adv-x="5832" 
d="M1483 952l-28 -110h-255l27 110h74l113 446l-2 3h-70l28 110h115l50 -68l-21 -82q98 155 239 155q35 0 64 -8l-48 -107q-18 6 -42 6q-58 0 -108 -35.5t-86 -95t-60.5 -119t-41.5 -125.5l-21 -80h73zM1859 1112l74 289h-88l27 110h198l-101 -399q-17 -66 18 -113t101 -47
t125 47t76 113l74 289h-73l28 110h256l-28 -110h-65l-67 -256v-1l-32 -123q-12 -42 1 -61q5 -6 22 -8q48 -3 82.5 54t50.5 134l107 -22q-27 -130 -89 -203t-147 -73h-10q-70 4 -106 55q-7 10 -15 30q-101 -85 -218 -85q-112 0 -171 79t-30 191zM2894 826q-44 0 -81.5 15.5
t-58 33.5t-37 43.5t-20 34.5t-6.5 18l109 53q2 -5 4.5 -11t12.5 -21.5t22.5 -26.5t34.5 -20.5t48 -9.5q60 0 112.5 19.5t67.5 60.5q14 36 -3 53t-106 52q-27 11 -77 32q-54 24 -82.5 61t-28.5 73.5t12 72.5q25 62 86.5 102.5t141.5 47.5q59 5 104.5 -5.5t68.5 -26.5
t38.5 -38t18.5 -32t4 -17l-56 -21l-55 -23q-1 5 -3.5 9.5t-12 14.5t-23.5 17t-41 11.5t-61 1.5q-42 -4 -70 -20.5t-36 -36.5q-10 -24 6.5 -48t54.5 -41q31 -14 75 -31q36 -14 54 -22.5t45 -23.5t38 -29.5t21.5 -36t7.5 -49t-16 -61.5q-31 -81 -115 -128t-198 -47zM3499 826
q-44 0 -81.5 15t-58 33.5t-37 43.5t-20.5 34.5t-7 18.5l110 53q2 -5 4.5 -11t12.5 -21.5t22.5 -26.5t34.5 -20.5t48 -9.5q60 0 112.5 19.5t67.5 60.5q14 36 -3 53t-106 52q-38 15 -78 32q-54 24 -82.5 61t-28.5 73.5t12 72.5q25 62 87 102.5t142 47.5q59 5 104.5 -5.5
t68.5 -26.5t38.5 -38t18.5 -32t4 -17l-56 -21l-56 -23q-1 5 -3.5 9.5t-12 14.5t-23.5 17t-41 11.5t-61 1.5q-42 -4 -69.5 -20t-35.5 -37q-10 -24 6.5 -48.5t53.5 -40.5q31 -14 75 -31q36 -14 54 -22t45 -23.5t38.5 -30t21.5 -36t7.5 -49t-15.5 -61.5q-31 -81 -115 -128
t-198 -47zM4210 842q-139 0 -212.5 98.5t-38.5 238.5q35 137 154.5 237t247.5 100q130 0 197.5 -98.5t32.5 -238.5l-14 -55h-516q-1 -75 48.5 -123.5t128.5 -48.5q102 0 188 75l63 -73q-62 -53 -135 -82.5t-144 -29.5zM4333 1406q-69 0 -138.5 -49.5t-105.5 -122.5h400
q2 75 -41 123.5t-115 48.5zM4981 842q-78 0 -132.5 17.5t-85.5 54.5t-45 86t-10 120.5t19 148.5t43 179q32 117 86 198t121 110q82 36 136 -14q48 -44 45.5 -137.5t-54.5 -212.5q-90 -203 -264 -366q20 -41 61.5 -57.5t109.5 -16.5zM4879 1448q-54 -194 -57 -304
q118 129 179 266q27 62 37.5 114.5t5.5 84t-20 45.5q-6 6 -15 6q-6 0 -10 -2q-26 -12 -60 -64t-60 -146zM5447 1400q-42 -4 -69.5 -20t-35.5 -37q-10 -24 6.5 -48.5t53.5 -40.5q31 -14 75 -31q36 -14 54 -22t45 -23.5t38.5 -30t21.5 -36t7.5 -49t-15.5 -61.5
q-31 -81 -115 -128t-198 -47q-44 0 -81.5 15t-58 33.5t-37 43.5t-20.5 34.5t-7 18.5l110 53q2 -5 4.5 -11t12.5 -21.5t22.5 -26.5t34.5 -20.5t48 -9.5q60 0 112.5 19.5t67.5 60.5q14 36 -3 53t-106 52q-38 15 -78 32q-54 24 -82 61t-28 73.5t12 72.5q25 62 86.5 102.5
t141.5 47.5q59 5 104.5 -5.5t68.5 -26.5t38.5 -38t18.5 -32t4 -17l-56 -21l-55 -23q-1 4 -3 8t-11.5 15t-23.5 17.5t-41.5 11.5t-62.5 2zM1027 672q81 -41 109 -124t-9 -172q-31 -76 -111 -131t-167 -60q-104 -6 -169 65q-25 27 -41 68.5t-13 86.5q7 85 82 147l70 -85
q-40 -33 -43 -70q-3 -42 27 -74q28 -31 81 -28q55 3 109.5 39.5t73.5 83.5q20 38 10 85.5t-58 71.5q-89 44 -186 36.5t-185 -51t-148 -110.5q-65 -73 -100 -174t-10 -187q16 -54 60 -101q51 -55 122 -82t150 -22q78 4 145 40.5t112 96.5l88 -64q-59 -80 -147.5 -128
t-190.5 -54q-10 -1 -30 -1q-95 0 -180.5 36t-148.5 103q-62 65 -85 145q-34 115 8 243.5t125 221.5q66 73 165 126q-6 1 -17.5 1t-17.5 1q-242 20 -326 132q-72 95 -36 260l107 -23q-25 -114 17 -171q53 -72 247 -88q436 -36 492 241q12 60 -5 112.5t-45.5 83.5t-70.5 57.5
t-64.5 35.5t-43.5 16q-101 15 -191 84l-140 -549h-110l210 821h-100l46 109h327q20 -1 56.5 0.5t94 -16.5t93.5 -54q64 -62 57 -162q-4 -69 -43.5 -123.5t-105.5 -84.5q185 -139 142 -352q-38 -185 -201 -269q64 -13 113 -39zM912 1425q94 33 100 122q3 50 -23 76
q-27 27 -77.5 35.5t-83.5 4.5h-5h-166l-39 -154q37 -37 79 -60t80.5 -30.5t72.5 -5.5t62 12zM1403 638q7 31 35 52.5t59 21.5t47 -21.5t8 -52.5q-7 -31 -35 -53t-59 -22t-47 22t-8 53zM1406 -97q48 -3 82.5 54t50.5 134l107 -22q-27 -130 -89 -202.5t-147 -72.5h-10
q-71 4 -106 54q-21 30 -25 72q-4 45 8 82l20 78l70 272h-128l28 110h243l-95 -366l-32 -123q-12 -43 1 -62q5 -6 22 -8zM1940 -97q38 0 67 11t39 22l11 11l93 -39q-26 -42 -88 -78.5t-150 -36.5q-84 0 -124 54q-21 28 -26.5 68t-2.5 61.5t7 33.5l57 225h-129l28 110h128
l62 246h110l-62 -246h110l-28 -110h-110l-56 -225q-3 -13 -3.5 -25.5t2 -34t19 -34.5t46.5 -13zM2707 64l103 398h115l-191 -765q-26 -105 -109.5 -175t-187.5 -76q-7 -1 -22 -1q-144 0 -211 98l85 72q4 -8 7 -12q34 -48 119 -48h16q69 4 123.5 51t72.5 118l32 128
q-89 -58 -181 -58q-112 0 -171 79t-30 191l73 289h-88l28 109h198l-102 -398q-17 -66 18.5 -113.5t101.5 -47.5t125 47.5t76 113.5zM3413 324q-41 0 -62 -78l-5 -17h16l-6 -23h-54l6 23h15l24 93v1h-15l6 23h24l11 -14l-5 -17q21 32 50 32q10 0 14 -1l-10 -23q-2 1 -9 1z
M3487 323q-18 -1 -22 -12q-4 -10 13 -19q6 -2 16 -6q21 -8 29.5 -17.5t1.5 -29.5q-14 -37 -65 -37q-15 0 -25.5 8t-14 14.5t-3.5 8.5l23 11q0 -1 2 -5t8.5 -9t14.5 -5q31 0 38 17q3 8 -0.5 11.5t-22.5 10.5q-10 4 -16 7q-33 14 -21 43t48 32q20 2 32 -4.5t14.5 -12t2.5 -8.5
l-11 -5l-12 -4q0 1 -1.5 3.5t-9 5.5t-19.5 2zM3816 259q1 5 3.5 16t4.5 17q3 14 -1.5 24t-19.5 8q-16 -2 -30 -20t-19 -35l-6 -17l-6 -23h15l-6 -23h-54l6 23h16l24 93l-1 1h-15l6 23h24l11 -14l-4 -15q19 30 50 30q21 0 28.5 -17.5t4.5 -35.5l-3 -17l-9 -34q-2 -9 1 -12
q2 -2 4 -2q10 -1 17 10.5t11 28.5l23 -4q-5 -27 -18.5 -42.5t-31.5 -15.5h-2q-16 1 -22 11t-6 15q0 3 5 27zM3960 204q-28 0 -42 20.5t-6 49.5t32 50t52 21q30 0 38 -24l6 24h24l-26 -102q-2 -10 0 -12t4 -2q10 -1 17 10.5t11 28.5l23 -4q-13 -58 -50 -58h-2q-16 1 -22 11
q-5 8 -5 15q-21 -28 -54 -28zM3935 274q-5 -19 4 -33t27 -14q17 0 33 13t22 32l1 5q4 19 -5 32t-26 13q-18 0 -34.5 -14t-21.5 -34zM4110 232q0 4 0.5 8t1.5 7v3l4 16l29 111h-27l6 24h51l-35 -132l-6 -26q-2 -10 0 -12t5 -2q10 -1 16.5 10.5t10.5 28.5l23 -4
q-13 -58 -49 -58h-3q-16 1 -22 11q-5 8 -5 15zM3066 35h-5l-37 -148h68l4 13h23l-10 -36h-130l6 23h16l38 148h-16l3 11q-25 20 -16 56l26 104h-57l6 23h16l38 149h-16l6 23h96q26 0 39.5 -18.5t6.5 -43.5t-29.5 -43t-48.5 -18h-57l-12 -49v1h54l-6 -23h-12l-27 -105
q-4 -16 3.5 -28.5t22.5 -14.5h8v-1h5q16 2 30 14.5t19 29.5l27 104h-16l6 24h37q-14 22 -7 47q7 28 32.5 49t52.5 21q28 0 42 -20.5t6 -49.5l-3 -12h-108q0 -16 10.5 -26t26.5 -10q20 0 39 16l14 -16q-26 -23 -59 -23q-18 0 -33 10l-2 -10h-15l-27 -104q-6 -23 -24.5 -41
t-42.5 -24v-2h-11zM3247 324q-14 0 -28.5 -10.5t-22.5 -25.5h83q1 16 -8 26t-24 10zM3062 378l-20 -77h57q16 0 30.5 11t18.5 27t-4.5 27.5t-24.5 11.5h-57zM3233 175q12 1 22 -1t15 -5.5t8 -8t4 -7t1 -3.5l-12 -5l-12 -4q0 1 -1.5 3.5t-8.5 5.5t-19 2q-19 -2 -23 -12
t13 -19q6 -2 16 -6q21 -8 29.5 -17.5t1.5 -29.5q-14 -37 -65 -37q-15 0 -25.5 8t-14 14.5t-3.5 8.5l23 11q0 -1 2.5 -5.5t9 -9t14.5 -4.5q30 0 37 17q3 8 -0.5 11.5t-22.5 10.5q-10 4 -16 7q-33 14 -20 43q12 29 47 32zM3410 58q-26 -23 -58 -23l-5 -19h48l-6 -23h-48
l-21 -84q-6 -22 13 -22q5 0 9.5 1t7 2.5t4.5 2.5t3 2l1 1l19 -8q-16 -24 -50 -24q-18 0 -26 11q-4 6 -5.5 14t-0.5 13t2 7l21 84h-20l6 23h20l6 23q-20 7 -29 25t-3 41q8 29 33 50t52 21q28 0 42 -21t6 -50l-3 -11h-108q0 -16 10.5 -26t26.5 -10q20 0 39 16zM3377 153
q-14 0 -28.5 -10.5t-22.5 -25.5h83q1 16 -8 26t-24 10zM3226 5q28 0 42 -21t6 -50l-3 -11h-108q0 -16 10.5 -26t26.5 -10q21 0 40 16l13 -16q-26 -23 -59 -23q-29 0 -44.5 20.5t-7.5 49.5t32.5 50t51.5 21zM3169 -54h84q1 16 -8.5 26t-24.5 10q-14 0 -28.5 -10.5
t-22.5 -25.5zM3470 42l-7 -27h49l-6 -23h-49l-21 -83q-6 -22 13 -22q5 0 9.5 1t7 2.5t4.5 2.5t3 2l1 1l20 -8q-16 -24 -50 -24q-18 0 -26 11q-13 17 -5 34l21 84h-20l6 23h20l10 37h8q-14 21 -7 50q8 29 32.5 50t52.5 21q29 0 37 -24l14 55l1 5q-20 7 -29 25.5t-3 41.5
q7 29 33.5 49.5t55.5 20.5q35 0 49 -28q9 -18 3 -42q-6 -26 -25 -43q-19 -19 -46 -26l-1 -3h-15l-33 -133q-3 -10 0 -13q1 -1 4 -1q10 -1 17 10.5t11 28.5l23 -4q-5 -27 -18.5 -42.5t-31.5 -15.5h-2q-16 1 -22 11q-5 8 -5 15q-21 -28 -53 -28q-18 0 -30 9zM3579 277
q-5 -20 5.5 -34t29.5 -14q24 0 43 19q12 11 17 29q4 16 -2 28q-10 19 -33 19q-20 0 -37.5 -14t-22.5 -33zM3474 103q-5 -19 4 -33t27 -14q17 0 33.5 13.5t21.5 32.5l1 3q5 19 -4.5 32.5t-26.5 13.5q-18 0 -34.5 -14t-21.5 -34zM3599 5q28 0 42.5 -21t6.5 -50l-3 -11h-108
q0 -16 10.5 -26t26.5 -10q20 0 39 16l13 -16q-26 -23 -58 -23q-29 0 -44.5 20.5t-8.5 49.5q8 29 32.5 50t51.5 21zM3542 -54h84q1 16 -8 26t-24 10q-14 0 -29 -10.5t-23 -25.5zM3779 3l-10 -22q-2 1 -9 1q-41 0 -62 -78l-5 -17h16l-6 -23h-54l6 23h15l24 93v1h-15l6 23h24
l10 -14l-4 -17q21 32 50 32q6 0 14 -2zM3858 5q35 0 49 -28l-21 -14q-10 19 -34 19q-19 0 -36.5 -14t-22.5 -34q-5 -19 5 -33t30 -14q25 0 43 18l14 -14q-27 -27 -63 -27q-29 0 -44.5 20.5t-7.5 49.5t33.5 50t54.5 21zM4051 -23q10 -20 4 -43t-26 -42q-28 -28 -63 -28
q-29 0 -44.5 20.5t-7.5 49.5t33.5 50t54.5 21q35 0 49 -28zM4032 -66q4 16 -2 29q-10 19 -34 19q-19 0 -36.5 -14t-22.5 -34q-5 -19 5 -33t30 -14q25 0 43 18q12 11 17 29zM4166 -18q-41 0 -62 -78l-5 -17h16l-6 -23h-54l6 23h15l24 93v1h-15l6 23h24l11 -14l-5 -17
q21 32 50 32q6 0 14 -2l-10 -22q-2 1 -9 1zM4308 -113q10 -1 17 10.5t11 28.5l22 -4q-13 -58 -49 -58h-2q-16 1 -22 11t-6 15q0 3 5 27q2 5 4.5 15.5t3.5 16.5q3 14 -1.5 24.5t-19.5 8.5q-16 -2 -30 -20t-20 -35l-6 -17l-6 -23h16l-6 -23h-54l6 23h15l24 93v1h-15l6 23h24
l11 -14l-4 -15q19 30 49 30q21 0 29 -17.5t5 -35.5l-3 -17l-9 -34q-3 -10 0 -13q1 -1 5 -1zM4465 5q28 0 42 -21t6 -50l-3 -11h-108q0 -16 10.5 -26t26.5 -10q20 0 39 16l14 -16q-26 -23 -59 -23q-29 0 -44.5 20.5t-8.5 49.5q8 29 33 50t52 21zM4408 -54h83q1 16 -8 26
t-24 10q-14 0 -28.5 -10.5t-22.5 -25.5zM4644 3l-10 -22q-2 1 -9 1q-41 0 -62 -78l-5 -17h16l-6 -23h-54l6 23h15l24 93v1h-15l6 23h24l11 -14l-5 -17q21 32 50 32q6 0 14 -2zM4703 4q20 2 32 -4.5t14.5 -12t2.5 -8.5l-11 -5l-12 -4q0 1 -1.5 3.5t-9 5.5t-19.5 2
q-18 -1 -22 -12q-4 -10 13 -19q6 -2 16 -6q21 -8 29.5 -17.5t1.5 -29.5q-14 -37 -65 -37q-15 0 -25.5 8t-14 14.5t-3.5 8.5l23 11q0 -1 2 -5t8.5 -9t14.5 -5q31 0 38 17q3 8 -0.5 11.5t-22.5 10.5q-10 4 -16 7q-33 14 -21 43t48 32zM4831 53l-9 -37h48l-5 -23h-49l-21 -84
q-5 -22 13 -22q8 0 14 2.5t8 4.5l3 2l19 -8q-16 -24 -50 -24q-18 0 -26 11q-4 6 -5.5 14t-0.5 13t2 7l21 84h-20l6 23h20l9 37h23zM5003 -113q10 -1 17 10.5t11 28.5l23 -4q-13 -58 -50 -58h-2q-16 1 -22 11l-3 6q-20 -17 -46 -17q-23 0 -35.5 16.5t-6.5 39.5l15 61h-18
l6 23h41l-21 -84q-4 -14 3.5 -23.5t21.5 -9.5t26 9.5t16 23.5l16 61h-16l6 23h54l-6 -23h-14l-14 -54l-6 -26q-3 -10 0 -13q1 -1 4 -1zM5206 -113q10 -1 17 10.5t11 28.5l22 -4q-13 -58 -49 -58h-3q-16 1 -22 11q-5 8 -5 15q-21 -28 -53 -28q-28 0 -42 20.5t-7 49.5
q8 29 32.5 50t52.5 21q29 0 37 -24l14 54l6 23h38l-6 -23h-15l-33 -132q-3 -10 0 -13q1 -1 5 -1zM5186 -66q4 19 -5.5 32.5t-26.5 13.5q-18 0 -34.5 -14t-21.5 -34q-5 -19 4.5 -33t27.5 -14q17 0 33.5 13.5t21.5 32.5zM5307 -113q10 -1 17 10.5t11 28.5l23 -5
q-11 -57 -50 -57h-2q-16 1 -22 11q-5 8 -5 15v8t1 6v3l4 17l15 57h-27l6 23h51l-20 -77l-7 -26q-2 -10 1 -13q1 -1 4 -1zM5338 41q-4 -16 -20 -16q-15 0 -11 16q3 15 19 15q15 0 12 -15zM5468 5q35 0 49 -28q10 -20 4 -43q-6 -25 -26 -43q-27 -27 -63 -27q-29 0 -44.5 20.5
t-8.5 49.5q8 29 34 50t55 21zM5498 -66q4 15 -3 29q-9 19 -33 19q-19 0 -37 -14t-23 -34q-5 -19 5.5 -33t30.5 -14q24 0 42 18q13 12 18 29z" />
    </font>
</defs>
</svg>
